<svg width="128" height="128" viewBox="0 0 128 128" fill="none" xmlns="http://www.w3.org/2000/svg">
<rect width="128" height="128" fill="#190C4F"/>
<path d="M98.9774 44.7823L108.277 56.9358C108.293 56.9573 108.303 56.9827 108.307 57.0093C108.31 57.0359 108.306 57.063 108.296 57.0877C108.285 57.1125 108.268 57.1342 108.247 57.1506C108.225 57.167 108.2 57.1777 108.173 57.1814C108.137 57.1856 108.101 57.1775 108.071 57.1584L95.7801 48.0394C95.7504 48.0107 95.7104 47.9946 95.6688 47.9946C95.6272 47.9946 95.5872 48.0107 95.5575 48.0394L91.9913 53.4522C91.9741 53.479 91.9487 53.4997 91.9188 53.5111C91.8894 53.5237 91.8566 53.5264 91.8256 53.5187C91.7949 53.5107 91.7674 53.4938 91.7466 53.4701C91.7248 53.446 91.7116 53.4154 91.7091 53.3831L91.3207 46.9315C91.3191 46.9112 91.3129 46.8916 91.3026 46.8739C91.293 46.8561 91.2798 46.8405 91.2638 46.8279C91.2483 46.8148 91.2302 46.8052 91.2107 46.7998C91.1906 46.7959 91.17 46.7959 91.1499 46.7998L78.2869 48.0061C78.2516 48.0081 78.2168 47.9977 78.1885 47.9767C78.1604 47.9558 78.1403 47.926 78.1316 47.8923C78.1224 47.8583 78.1252 47.8222 78.1393 47.7899C78.1536 47.7578 78.1781 47.7313 78.2092 47.7145L89.9007 42.3771C89.9203 42.37 89.938 42.3587 89.9525 42.3439C89.9674 42.329 89.9788 42.3111 89.9862 42.2914C89.993 42.2721 89.9961 42.2517 89.9952 42.2313C89.9938 42.2102 89.9876 42.1896 89.9771 42.1712L86.9999 36.3285C86.9865 36.2997 86.982 36.2677 86.9869 36.2364C86.9923 36.205 87.0072 36.1761 87.0296 36.1532C87.0521 36.1307 87.0811 36.1156 87.1127 36.1101C87.1442 36.1046 87.1767 36.1089 87.2057 36.1225L93.1019 38.9972C93.1196 39.0076 93.1396 39.0138 93.1601 39.0151C93.1807 39.0175 93.2014 39.0153 93.221 39.0087C93.2403 39.0022 93.2579 38.9918 93.2728 38.978C93.2881 38.9642 93.3001 38.9471 93.3077 38.9281L98.5515 27.3924C98.5679 27.3611 98.5943 27.3359 98.6266 27.3208C98.6587 27.3066 98.6948 27.3039 98.7288 27.3129C98.7628 27.322 98.7925 27.3424 98.813 27.3707C98.8338 27.3993 98.8443 27.434 98.8428 27.4692L97.7205 40.0808C97.7192 40.1011 97.7218 40.1215 97.7283 40.1409C97.7355 40.1596 97.746 40.1769 97.7593 40.1921C97.7728 40.2072 97.7891 40.2198 97.8072 40.2292C97.8253 40.2383 97.8452 40.2431 97.8655 40.2432L104.303 40.604C104.336 40.6018 104.369 40.6113 104.396 40.6309C104.423 40.6503 104.443 40.6783 104.452 40.7102C104.463 40.7416 104.463 40.776 104.452 40.8074C104.439 40.8376 104.416 40.8628 104.387 40.8791L99.0551 44.5251C99.0299 44.5329 99.0071 44.547 98.9891 44.5661C98.9709 44.585 98.9572 44.6078 98.9489 44.6326C98.9425 44.6586 98.9425 44.6858 98.9489 44.7119C98.9527 44.7372 98.9624 44.7614 98.9774 44.7823ZM74.9848 42.2607H62.2435C62.1723 42.2567 62.1018 42.276 62.0429 42.3157C61.982 42.3547 61.9364 42.4128 61.9134 42.4808L49.3922 79.2983H49.1126L34.9383 42.4731C34.9139 42.4126 34.8721 42.3606 34.818 42.3234C34.7635 42.2865 34.6989 42.2668 34.6329 42.2671H21.7414C21.6984 42.2669 21.6558 42.2752 21.616 42.2913C21.5762 42.3074 21.54 42.3311 21.5095 42.361C21.4789 42.3909 21.4547 42.4265 21.4381 42.4657C21.4214 42.5049 21.4128 42.547 21.4126 42.5895L19.6923 93.3786C19.6923 93.4212 19.7008 93.4634 19.7174 93.5027C19.7339 93.5421 19.7581 93.5778 19.7887 93.6079C19.8192 93.638 19.8555 93.6618 19.8954 93.678C19.9353 93.6941 19.978 93.7024 20.0211 93.7022H26.3082C26.3514 93.7024 26.3941 93.6941 26.434 93.678C26.4739 93.6618 26.5101 93.638 26.5407 93.6079C26.5712 93.5778 26.5954 93.5421 26.612 93.5027C26.6285 93.4634 26.637 93.4212 26.637 93.3786L25.3931 54.6855H25.674L40.2767 93.5589C40.3006 93.6211 40.343 93.6746 40.3983 93.7125C40.4534 93.7501 40.5191 93.7698 40.586 93.7688H49.3792C49.4508 93.7726 49.5217 93.7533 49.5812 93.7137C49.6417 93.6745 49.6873 93.6164 49.7106 93.5487L62.7082 54.6062H62.9865L63.3153 93.3811C63.3153 93.4237 63.3238 93.4659 63.3403 93.5053C63.3569 93.5446 63.3811 93.5804 63.4117 93.6104C63.4422 93.6405 63.4785 93.6643 63.5184 93.6805C63.5582 93.6967 63.601 93.705 63.6441 93.7048H76.2223C76.2654 93.705 76.3081 93.6967 76.348 93.6805C76.3879 93.6643 76.4241 93.6405 76.4547 93.6104C76.4852 93.5804 76.5095 93.5446 76.526 93.5053C76.5425 93.4659 76.551 93.4237 76.551 93.3811L75.3161 42.5921C75.3171 42.5492 75.3092 42.5065 75.2929 42.4667C75.2767 42.4269 75.2524 42.3908 75.2217 42.3605C75.1905 42.3307 75.1541 42.3069 75.1142 42.2901C75.0736 42.2716 75.0295 42.2616 74.9848 42.2607Z" fill="white"/>
</svg>
