<svg width="128" height="128" viewBox="0 0 128 128" fill="none" xmlns="http://www.w3.org/2000/svg">
<rect width="128" height="128" fill="#0011FF"/>
<path d="M98.9775 44.7832L108.277 56.9367C108.293 56.9582 108.303 56.9836 108.307 57.0102C108.31 57.0368 108.306 57.0639 108.296 57.0886C108.285 57.1134 108.269 57.1351 108.247 57.1515C108.226 57.1679 108.2 57.1786 108.173 57.1823C108.138 57.1865 108.101 57.1784 108.071 57.1593L95.7802 48.0403C95.7504 48.0116 95.7105 47.9955 95.6689 47.9955C95.6273 47.9955 95.5873 48.0116 95.5575 48.0403L91.9913 53.4531C91.9742 53.4799 91.9488 53.5006 91.9188 53.512C91.8895 53.5246 91.8567 53.5273 91.8256 53.5196C91.795 53.5116 91.7675 53.4947 91.7467 53.471C91.7249 53.4469 91.7117 53.4163 91.7091 53.384L91.3208 46.9324C91.3192 46.9121 91.313 46.8925 91.3027 46.8748C91.293 46.857 91.2798 46.8414 91.2639 46.8288C91.2484 46.8157 91.2303 46.8061 91.2108 46.8007C91.1907 46.7968 91.17 46.7968 91.1499 46.8007L78.287 48.0071C78.2517 48.009 78.2169 47.9986 78.1886 47.9776C78.1605 47.9567 78.1404 47.9269 78.1317 47.8932C78.1225 47.8592 78.1252 47.8231 78.1394 47.7908C78.1536 47.7587 78.1782 47.7322 78.2093 47.7154L89.9008 42.378C89.9204 42.3709 89.9381 42.3596 89.9526 42.3448C89.9674 42.3299 89.9789 42.312 89.9862 42.2923C89.9931 42.273 89.9962 42.2526 89.9953 42.2322C89.9939 42.2111 89.9877 42.1905 89.9772 42.1721L86.9999 36.3294C86.9866 36.3006 86.9821 36.2686 86.987 36.2373C86.9924 36.2059 87.0073 36.177 87.0297 36.1541C87.0522 36.1316 87.0812 36.1165 87.1128 36.111C87.1443 36.1055 87.1768 36.1098 87.2057 36.1234L93.102 38.9981C93.1197 39.0085 93.1396 39.0147 93.1602 39.016C93.1807 39.0184 93.2015 39.0162 93.2211 39.0096C93.2403 39.0031 93.258 38.9927 93.2728 38.9789C93.2882 38.9651 93.3001 38.948 93.3078 38.929L98.5516 27.3933C98.568 27.362 98.5944 27.3368 98.6267 27.3217C98.6588 27.3075 98.6949 27.3048 98.7289 27.3138C98.7628 27.3229 98.7926 27.3433 98.8131 27.3716C98.8339 27.4002 98.8444 27.4349 98.8429 27.4701L97.7206 40.0817C97.7192 40.102 97.7219 40.1224 97.7283 40.1418C97.7356 40.1605 97.7461 40.1778 97.7594 40.193C97.7729 40.2081 97.7892 40.2207 97.8073 40.2301C97.8253 40.2392 97.8453 40.244 97.8656 40.2441L104.303 40.6049C104.336 40.6027 104.369 40.6122 104.396 40.6318C104.423 40.6512 104.443 40.6792 104.452 40.7111C104.463 40.7425 104.463 40.7769 104.452 40.8083C104.439 40.8385 104.416 40.8637 104.387 40.88L99.0551 44.526C99.03 44.5338 99.0072 44.5479 98.9891 44.567C98.971 44.5859 98.9573 44.6087 98.949 44.6335C98.9425 44.6595 98.9425 44.6867 98.949 44.7128C98.9528 44.7381 98.9625 44.7623 98.9775 44.7832ZM74.9848 42.2616H62.2436C62.1724 42.2576 62.1018 42.2769 62.0429 42.3166C61.9821 42.3556 61.9365 42.4137 61.9135 42.4817L49.3923 79.2992H49.1127L34.9384 42.474C34.914 42.4135 34.8721 42.3615 34.818 42.3243C34.7636 42.2874 34.699 42.2677 34.6329 42.268H21.7415C21.6985 42.2678 21.6559 42.2761 21.6161 42.2922C21.5763 42.3083 21.5401 42.332 21.5095 42.3619C21.479 42.3918 21.4547 42.4274 21.4381 42.4666C21.4215 42.5058 21.4129 42.5479 21.4127 42.5904L19.6924 93.3795C19.6924 93.4221 19.7009 93.4643 19.7174 93.5036C19.734 93.543 19.7582 93.5787 19.7888 93.6088C19.8193 93.6389 19.8556 93.6627 19.8954 93.6789C19.9353 93.695 19.9781 93.7033 20.0212 93.7031H26.3083C26.3514 93.7033 26.3942 93.695 26.434 93.6789C26.4739 93.6627 26.5102 93.6389 26.5407 93.6088C26.5713 93.5787 26.5955 93.543 26.6121 93.5036C26.6286 93.4643 26.6371 93.4221 26.6371 93.3795L25.3931 54.6864H25.674L40.2767 93.5598C40.3007 93.622 40.3431 93.6755 40.3984 93.7134C40.4535 93.751 40.5191 93.7707 40.5861 93.7697H49.3793C49.4509 93.7735 49.5218 93.7542 49.5812 93.7146C49.6418 93.6754 49.6874 93.6173 49.7107 93.5496L62.7083 54.6071H62.9866L63.3154 93.382C63.3154 93.4246 63.3239 93.4668 63.3404 93.5062C63.357 93.5455 63.3812 93.5813 63.4117 93.6113C63.4423 93.6414 63.4786 93.6652 63.5184 93.6814C63.5583 93.6976 63.601 93.7059 63.6442 93.7057H76.2223C76.2655 93.7059 76.3082 93.6976 76.3481 93.6814C76.3879 93.6652 76.4242 93.6414 76.4548 93.6113C76.4853 93.5813 76.5095 93.5455 76.5261 93.5062C76.5426 93.4668 76.5511 93.4246 76.5511 93.382L75.3162 42.593C75.3171 42.5501 75.3092 42.5074 75.293 42.4676C75.2768 42.4278 75.2525 42.3917 75.2217 42.3614C75.1906 42.3316 75.1542 42.3078 75.1143 42.291C75.0737 42.2725 75.0296 42.2625 74.9848 42.2616Z" fill="white"/>
</svg>
